<svg width="24" height="24" viewBox="0 0 24 24" fill="none" xmlns="http://www.w3.org/2000/svg">
<path d="M5.62176 0.63142C5.42466 0.830271 5.2683 1.06647 5.16161 1.32649C5.05492 1.58651 5 1.86526 5 2.14676C5 2.42827 5.05492 2.70701 5.16161 2.96704C5.2683 3.22706 5.42466 3.46326 5.62176 3.66211L13.8709 12.0019L5.62176 20.3416C5.22423 20.7435 5.0009 21.2886 5.0009 21.857C5.0009 22.4253 5.22423 22.9704 5.62176 23.3723C6.01929 23.7742 6.55845 24 7.12065 24C7.68284 24 8.222 23.7742 8.61953 23.3723L18.3782 13.5065C18.5753 13.3076 18.7317 13.0714 18.8384 12.8114C18.9451 12.5514 19 12.2726 19 11.9911C19 11.7096 18.9451 11.4309 18.8384 11.1709C18.7317 10.9108 18.5753 10.6746 18.3782 10.4758L8.61953 0.609925C7.81162 -0.206856 6.45093 -0.206856 5.62176 0.63142Z" fill="black"/>
</svg>
